<svg xmlns="http://www.w3.org/2000/svg" xmlns:xlink="http://www.w3.org/1999/xlink" width="500" zoomAndPan="magnify" viewBox="0 0 375 74.999997" height="100" preserveAspectRatio="xMidYMid meet" version="1.0"><defs><g/></defs><g fill="#ffffff" fill-opacity="1"><g transform="translate(23.943269, 53.905611)"><g><path d="M 7.390625 0 L 10.5625 -8.453125 L 24.1875 -8.453125 L 27.40625 0.53125 L 34.265625 -0.421875 L 20.328125 -35.90625 L 14.515625 -35.90625 L 0.53125 0 Z M 17.265625 -26.5 L 22.0625 -13.984375 L 12.5625 -13.984375 Z M 17.265625 -26.5 "/></g></g></g><g fill="#ffffff" fill-opacity="1"><g transform="translate(58.737186, 53.905611)"><g><path d="M 14.46875 0 L 20.28125 0 L 34.265625 -35.90625 L 27.40625 -35.90625 L 17.53125 -9.390625 L 7.390625 -36.4375 L 0.53125 -35.484375 Z M 14.46875 0 "/></g></g></g><g fill="#ffffff" fill-opacity="1"><g transform="translate(93.531103, 53.905611)"><g><path d="M 11.296875 -5.328125 L 11.296875 -15.421875 L 24.125 -15.421875 L 23.015625 -20.859375 L 11.296875 -20.859375 L 11.296875 -30.515625 L 26.984375 -30.515625 L 25.921875 -35.90625 L 4.484375 -35.90625 L 4.484375 0 L 29.625 0 L 28.515625 -5.328125 Z M 11.296875 -5.328125 "/></g></g></g><g fill="#ffffff" fill-opacity="1"><g transform="translate(124.206778, 53.905611)"><g><path d="M 11.296875 0 L 11.296875 -13.625 L 17.734375 -13.625 L 25.34375 0 L 32.625 0 L 23.8125 -15.421875 C 25.675781 -16.335938 27.160156 -17.601562 28.265625 -19.21875 C 29.378906 -20.832031 29.9375 -22.71875 29.9375 -24.875 C 29.9375 -28.457031 28.609375 -31.191406 25.953125 -33.078125 C 23.296875 -34.960938 19.890625 -35.90625 15.734375 -35.90625 L 4.484375 -35.90625 L 4.484375 0 Z M 15.515625 -30.203125 C 20.304688 -30.203125 22.703125 -28.316406 22.703125 -24.546875 C 22.703125 -22.722656 22.054688 -21.378906 20.765625 -20.515625 C 19.484375 -19.648438 17.769531 -19.21875 15.625 -19.21875 L 11.296875 -19.21875 L 11.296875 -30.203125 Z M 15.515625 -30.203125 "/></g></g></g><g fill="#ffffff" fill-opacity="1"><g transform="translate(157.363951, 53.905611)"><g><path d="M 31.578125 -35.90625 L 24.34375 -35.90625 L 15.625 -20.90625 L 7.28125 -36.640625 L 0.53125 -34.6875 L 12.25 -13.984375 L 12.25 0 L 19.109375 0 L 19.109375 -13.734375 Z M 31.578125 -35.90625 "/></g></g></g><g fill="#ffffff" fill-opacity="1"><g transform="translate(189.465165, 53.905611)"><g/></g></g><g fill="#ffffff" fill-opacity="1"><g transform="translate(201.344722, 53.905611)"><g><path d="M 18.109375 0 C 23.390625 -0.0703125 27.460938 -1.695312 30.328125 -4.875 C 33.203125 -8.0625 34.640625 -12.488281 34.640625 -18.15625 C 34.640625 -21.675781 34.03125 -24.765625 32.8125 -27.421875 C 31.59375 -30.085938 29.742188 -32.164062 27.265625 -33.65625 C 24.785156 -35.15625 21.734375 -35.90625 18.109375 -35.90625 L 4.484375 -35.90625 L 4.484375 0 Z M 18.375 -30.09375 C 21.46875 -30.09375 23.769531 -29.0625 25.28125 -27 C 26.800781 -24.945312 27.5625 -22 27.5625 -18.15625 C 27.5625 -13.863281 26.722656 -10.722656 25.046875 -8.734375 C 23.378906 -6.742188 21.03125 -5.75 18 -5.75 L 11.296875 -5.75 L 11.296875 -30.09375 Z M 18.375 -30.09375 "/></g></g></g><g fill="#ffffff" fill-opacity="1"><g transform="translate(237.828176, 53.905611)"><g><path d="M 7.390625 0 L 10.5625 -8.453125 L 24.1875 -8.453125 L 27.40625 0.53125 L 34.265625 -0.421875 L 20.328125 -35.90625 L 14.515625 -35.90625 L 0.53125 0 Z M 17.265625 -26.5 L 22.0625 -13.984375 L 12.5625 -13.984375 Z M 17.265625 -26.5 "/></g></g></g><g fill="#ffffff" fill-opacity="1"><g transform="translate(272.622094, 53.905611)"><g><path d="M 14.46875 0 L 20.28125 0 L 34.265625 -35.90625 L 27.40625 -35.90625 L 17.53125 -9.390625 L 7.390625 -36.4375 L 0.53125 -35.484375 Z M 14.46875 0 "/></g></g></g><g fill="#ffffff" fill-opacity="1"><g transform="translate(307.416011, 53.905611)"><g><path d="M 4.484375 -35.90625 L 4.484375 0 L 11.296875 0 L 11.296875 -35.90625 Z M 4.484375 -35.90625 "/></g></g></g><g fill="#ffffff" fill-opacity="1"><g transform="translate(323.202638, 53.905611)"><g><path d="M 2.484375 -2.375 C 3.679688 -1.632812 5.378906 -0.9375 7.578125 -0.28125 C 9.773438 0.363281 11.613281 0.6875 13.09375 0.6875 C 15.90625 0.6875 18.320312 0.265625 20.34375 -0.578125 C 22.375 -1.421875 23.90625 -2.582031 24.9375 -4.0625 C 25.976562 -5.539062 26.5 -7.25 26.5 -9.1875 C 26.5 -10.914062 26.082031 -12.421875 25.25 -13.703125 C 24.425781 -14.984375 23.398438 -16.070312 22.171875 -16.96875 C 20.941406 -17.875 19.289062 -18.921875 17.21875 -20.109375 L 15.6875 -21.015625 L 13.984375 -21.96875 C 12.191406 -23.019531 10.898438 -23.890625 10.109375 -24.578125 C 9.316406 -25.265625 8.921875 -26.117188 8.921875 -27.140625 C 8.921875 -28.335938 9.421875 -29.242188 10.421875 -29.859375 C 11.429688 -30.472656 12.726562 -30.78125 14.3125 -30.78125 C 15.675781 -30.78125 16.945312 -30.585938 18.125 -30.203125 C 19.3125 -29.816406 20.625 -29.269531 22.0625 -28.5625 L 24.34375 -34.046875 C 20.613281 -35.847656 17.234375 -36.75 14.203125 -36.75 C 11.628906 -36.75 9.414062 -36.332031 7.5625 -35.5 C 5.71875 -34.675781 4.300781 -33.535156 3.3125 -32.078125 C 2.332031 -30.617188 1.84375 -28.972656 1.84375 -27.140625 C 1.84375 -25.410156 2.34375 -23.847656 3.34375 -22.453125 C 4.351562 -21.066406 5.550781 -19.863281 6.9375 -18.84375 C 8.332031 -17.820312 10.207031 -16.609375 12.5625 -15.203125 L 14.15625 -14.25 C 15.945312 -13.269531 17.269531 -12.414062 18.125 -11.6875 C 18.988281 -10.96875 19.421875 -10.171875 19.421875 -9.296875 C 19.421875 -8.023438 18.875 -7.054688 17.78125 -6.390625 C 16.695312 -5.722656 15.097656 -5.390625 12.984375 -5.390625 C 11.609375 -5.390625 10.09375 -5.644531 8.4375 -6.15625 C 6.789062 -6.664062 5.316406 -7.253906 4.015625 -7.921875 Z M 2.484375 -2.375 "/></g></g></g></svg>